<svg width="345" height="245" fill="none" viewBox="0 0 346 247" class="desktop::w-full h-min w-full max-w-[345px] desktop:h-auto"><rect width="344" height="118" x="1.152" y="128.16" class="default-transition fill-trustWhite stroke-tintBlue [transition-property:fill,stroke] dark:fill-trustBlack dark:stroke-tintBlack" rx="7.5"></rect><circle cx="35.652" cy="195.66" r="20" fill="#687EE3"></circle><path fill="#D2D8EC" d="M35.652 202.733v6.965l8.574-12.038-8.574 5.073Z"></path><path fill="#C4C8D8" d="M35.652 191.984v8.966l8.574-5.073-8.574-3.893Z"></path><path fill="#D0D6EA" d="M35.652 181.66v10.324l8.574 3.893-8.574-14.217Z"></path><path fill="#DEE2F6" d="M35.651 202.733v6.965l-8.573-12.038 8.573 5.073Z"></path><path fill="#D2D8EC" d="M35.651 191.984v8.966l-8.573-5.073 8.573-3.893Z"></path><path fill="#DEE2F6" d="M35.651 181.66v10.324l-8.573 3.893 8.573-14.217Z"></path><path class="default-transition fill-trustBlack [transition-property:fill] dark:fill-trustWhite" d="M67.372 203.66V189.7h8.94v2h-6.68v3.88h6.06v2h-6.06v4.08h6.68v2h-8.94Zm14.776-11.96h-4.16v-2h10.58v2h-4.16v11.96h-2.26V191.7Zm17.203 5.88h-6.32v6.08h-2.26V189.7h2.26v5.88h6.32v-5.88h2.26v13.96h-2.26v-6.08Z"></path><path fill="#929AA5" fill-rule="evenodd" d="m113.653 195.9-3.241-3.241-1.473 1.473 4.714 4.714 1.473-1.473 3.241-3.241-1.473-1.473-3.241 3.241Z" clip-rule="evenodd"></path><path class="default-transition fill-trustBlack [transition-property:fill] dark:fill-trustWhite" d="M268.296 187.908c.168 0 .288.12.288.288v16.176c0 .168-.12.288-.288.288h-2.184a.277.277 0 0 1-.288-.288v-13.368l-3.024 2.76c-.168.168-.36.072-.36-.168v-2.64a.51.51 0 0 1 .168-.36l2.952-2.544a.436.436 0 0 1 .336-.144h2.4Zm15.653 0c.168 0 .288.12.288.288v1.656c0 .12-.024.216-.072.36l-5.424 14.232c-.048.144-.168.216-.336.216h-2.472c-.216 0-.312-.12-.24-.336l5.304-13.8h-4.056v1.872c0 .168-.12.288-.288.288h-2.112a.277.277 0 0 1-.288-.288v-4.2c0-.168.12-.288.288-.288h9.408Zm6.676 16.464c0 .168-.12.288-.288.288h-2.976a.277.277 0 0 1-.288-.288v-2.976c0-.168.12-.288.288-.288h2.976c.168 0 .288.12.288.288v2.976Zm8.021.576c-2.928 0-5.232-1.872-5.232-4.944 0-2.04 1.128-3.288 2.328-4.008-1.104-.672-2.04-1.872-2.04-3.672 0-2.832 2.16-4.704 4.944-4.704s4.968 1.872 4.968 4.704c0 1.8-.936 3-2.04 3.672 1.2.72 2.328 1.968 2.328 4.008 0 3.072-2.328 4.944-5.256 4.944Zm0-10.368c1.248 0 2.136-.912 2.136-2.184 0-1.248-.888-2.184-2.136-2.184-1.248 0-2.112.936-2.112 2.184 0 1.272.864 2.184 2.112 2.184Zm0 7.752c1.32 0 2.352-1.056 2.352-2.4 0-1.32-1.032-2.376-2.352-2.376-1.32 0-2.352 1.056-2.352 2.376 0 1.344 1.032 2.4 2.352 2.4Zm12.869 2.616c-1.536 0-2.736-.432-3.6-1.296-.72-.72-1.128-1.656-1.272-2.928-.024-.192.096-.288.264-.312l2.28-.168c.168-.024.264.072.312.24.216 1.128.912 1.704 2.016 1.704 1.512 0 2.16-.912 2.16-3.048 0-2.04-.576-2.952-1.872-2.952-.816 0-1.392.36-1.728 1.032-.072.168-.168.24-.336.216l-2.472-.288c-.168-.024-.264-.12-.264-.288v-8.664c0-.168.12-.288.288-.288h8.544c.168 0 .288.12.288.288v2.064c0 .168-.12.288-.288.288h-6.168v3.984c.624-.648 1.488-.984 2.544-.984 1.128 0 2.088.36 2.808 1.08 1.008 1.008 1.488 2.472 1.488 4.512 0 2.112-.432 3.48-1.44 4.488-.888.888-2.064 1.32-3.552 1.32Zm14.788-17.04c.168 0 .288.12.288.288v16.176c0 .168-.12.288-.288.288h-2.184a.277.277 0 0 1-.288-.288v-13.368l-3.024 2.76c-.168.168-.36.072-.36-.168v-2.64a.51.51 0 0 1 .168-.36l2.952-2.544a.436.436 0 0 1 .336-.144h2.4Z"></path><path fill="#848E9C" d="M18.04 156.66h-1.356v-8.376h3.612c1.5 0 2.424.972 2.424 2.52 0 1.188-.564 2.016-1.632 2.328l1.812 3.528h-1.512l-1.68-3.384H18.04v3.384Zm2.16-4.524c.684 0 1.092-.372 1.092-1.044v-.576c0-.672-.408-1.044-1.092-1.044h-2.16v2.664h2.16Zm6.524 4.668c-1.776 0-2.868-1.272-2.868-3.264 0-1.992 1.092-3.264 2.868-3.264 1.836 0 2.772 1.38 2.772 3.108v.492h-4.284v.204c0 .96.588 1.644 1.644 1.644.768 0 1.284-.36 1.644-.936l.768.756c-.468.756-1.38 1.26-2.544 1.26Zm0-5.508c-.9 0-1.512.672-1.512 1.632v.084h2.904v-.12c0-.96-.528-1.596-1.392-1.596Zm6.632 5.508c-1.8 0-2.832-1.272-2.832-3.264 0-1.992 1.032-3.264 2.832-3.264 1.248 0 2.04.612 2.412 1.536l-1.08.504c-.18-.576-.624-.948-1.332-.948-.96 0-1.452.66-1.452 1.62v1.116c0 .96.492 1.62 1.452 1.62.756 0 1.2-.408 1.464-1.032l.996.528c-.408 1.02-1.26 1.584-2.46 1.584Zm6.083 0c-1.776 0-2.868-1.272-2.868-3.264 0-1.992 1.092-3.264 2.868-3.264 1.836 0 2.772 1.38 2.772 3.108v.492h-4.284v.204c0 .96.588 1.644 1.644 1.644.768 0 1.284-.36 1.644-.936l.768.756c-.468.756-1.38 1.26-2.544 1.26Zm0-5.508c-.9 0-1.512.672-1.512 1.632v.084h2.904v-.12c0-.96-.528-1.596-1.392-1.596Zm4.88-1.992c-.54 0-.78-.288-.78-.684v-.204c0-.396.24-.684.78-.684s.768.288.768.684v.204c0 .396-.228.684-.768.684Zm-.66 1.116h1.308v6.24h-1.308v-6.24Zm4.531 6.24-2.124-6.24h1.296l.948 2.844.636 2.184h.072l.636-2.184.972-2.844h1.248l-2.148 6.24H48.19Zm7.14.144c-1.777 0-2.869-1.272-2.869-3.264 0-1.992 1.092-3.264 2.868-3.264 1.836 0 2.772 1.38 2.772 3.108v.492h-4.284v.204c0 .96.588 1.644 1.644 1.644.768 0 1.284-.36 1.644-.936l.768.756c-.468.756-1.38 1.26-2.544 1.26Zm0-5.508c-.9 0-1.513.672-1.513 1.632v.084h2.904v-.12c0-.96-.528-1.596-1.392-1.596Z"></path><rect width="344" height="118" x="1.152" y="1.16" class="default-transition fill-trustWhite stroke-tintBlue [transition-property:fill,stroke] dark:fill-trustBlack dark:stroke-tintBlack" rx="7.5"></rect><path fill="#848E9C" d="M20.192 32.804c-1.404 0-2.364-.552-3.06-1.416l.936-.876c.588.72 1.284 1.092 2.196 1.092 1.068 0 1.62-.528 1.62-1.332 0-.648-.336-1.02-1.308-1.212l-.744-.132c-1.62-.3-2.448-1.056-2.448-2.388 0-1.488 1.152-2.4 2.928-2.4 1.26 0 2.184.456 2.832 1.284l-.948.84c-.432-.564-1.032-.924-1.956-.924-.96 0-1.512.396-1.512 1.128 0 .696.432.996 1.332 1.176l.744.156c1.668.324 2.424 1.068 2.424 2.4 0 1.56-1.116 2.604-3.036 2.604Zm4.568-6.384h1.308v1.032h.06c.264-.744.924-1.176 1.752-1.176 1.572 0 2.484 1.212 2.484 3.264 0 2.052-.912 3.264-2.484 3.264-.828 0-1.488-.444-1.752-1.176h-.06v3.432H24.76v-8.64Zm2.724 5.256c.9 0 1.5-.636 1.5-1.596V29c0-.96-.6-1.596-1.5-1.596-.792 0-1.416.432-1.416 1.068v2.136c0 .636.624 1.068 1.416 1.068Zm6.826 1.128c-1.776 0-2.868-1.272-2.868-3.264 0-1.992 1.092-3.264 2.868-3.264 1.836 0 2.772 1.38 2.772 3.108v.492h-4.284v.204c0 .96.588 1.644 1.644 1.644.768 0 1.284-.36 1.644-.936l.768.756c-.468.756-1.38 1.26-2.544 1.26Zm0-5.508c-.9 0-1.512.672-1.512 1.632v.084h2.904v-.12c0-.96-.528-1.596-1.392-1.596Zm4.22 5.364v-6.24h1.308v1.032h.06c.264-.672.792-1.176 1.752-1.176 1.272 0 2.028.888 2.028 2.424v3.96H42.37v-3.792c0-.972-.372-1.464-1.176-1.464-.684 0-1.356.348-1.356 1.08v4.176H38.53Zm10.885-1.032h-.06c-.264.732-.924 1.176-1.752 1.176-1.572 0-2.484-1.212-2.484-3.264 0-2.052.912-3.264 2.484-3.264.828 0 1.488.432 1.752 1.176h.06V23.78h1.308v8.88h-1.308v-1.032Zm-1.416.048c.792 0 1.416-.432 1.416-1.068v-2.136c0-.636-.624-1.068-1.416-1.068-.9 0-1.5.636-1.5 1.596v1.08c0 .96.6 1.596 1.5 1.596Z"></path><path fill="#F6921A" d="M52.057 75.493c-2.66 10.73-13.538 17.232-24.238 14.572S10.586 76.527 13.246 65.827c2.66-10.73 13.508-17.232 24.238-14.572 10.73 2.69 17.233 13.538 14.573 24.238Z"></path><path fill="#fff" d="M41.32 67.687c.384-2.66-1.626-4.079-4.405-5.054l.887-3.607-2.187-.561-.887 3.517c-.591-.148-1.183-.266-1.744-.413l.887-3.547-2.188-.562-.886 3.606c-.474-.118-.946-.207-1.39-.325l-3.015-.769-.591 2.335s1.626.385 1.596.385c.887.236 1.064.798 1.035 1.27l-1.035 4.11c.06.029.148.029.237.058-.06-.03-.148-.03-.237-.059l-1.448 5.764c-.118.266-.384.68-1.005.532.03.03-1.596-.384-1.596-.384l-1.094 2.512 2.867.71c.532.147 1.064.266 1.567.413l-.917 3.636 2.188.562.887-3.606c.59.177 1.182.325 1.744.443l-.887 3.576 2.187.562.916-3.636c3.755.71 6.563.414 7.745-2.955.946-2.72-.06-4.286-2.01-5.32 1.419-.296 2.483-1.242 2.779-3.193Zm-5.026 7.035c-.68 2.719-5.261 1.241-6.768.887l1.211-4.819c1.508.355 6.267 1.094 5.558 3.932Zm.68-7.065c-.62 2.483-4.433 1.212-5.675.917l1.094-4.375c1.241.296 5.232.857 4.581 3.458Z"></path><path class="default-transition fill-trustBlack [transition-property:fill] dark:fill-trustWhite" d="M64.372 64.7h6.18c2.3 0 3.72 1.42 3.72 3.6 0 2.1-1.28 2.86-2.42 2.96v.12c1.14.04 2.92.92 2.92 3.26 0 2.26-1.54 4.02-3.6 4.02h-6.8V64.7Zm2.26 5.9h3.5c1.1 0 1.76-.6 1.76-1.66v-.64c0-1.06-.66-1.66-1.76-1.66h-3.5v3.96Zm0 6.12h3.88c1.16 0 1.88-.64 1.88-1.78v-.68c0-1.14-.72-1.78-1.88-1.78h-3.88v4.24ZM79.968 66.7h-4.16v-2h10.58v2h-4.16v11.96h-2.26V66.7Zm13.414 12.2c-3.64 0-5.86-2.54-5.86-7.22s2.22-7.22 5.86-7.22c2.42 0 4.04 1.08 4.98 3.16l-1.9 1.04c-.48-1.32-1.46-2.18-3.08-2.18-2.14 0-3.46 1.56-3.46 4.14v2.12c0 2.58 1.32 4.14 3.46 4.14 1.66 0 2.72-.96 3.22-2.32l1.82 1.1c-.94 2.02-2.62 3.24-5.04 3.24Z"></path><path fill="#929AA5" fill-rule="evenodd" d="m109.653 70.9-3.241-3.241-1.473 1.473 4.714 4.714 1.473-1.473 3.241-3.241-1.473-1.473-3.241 3.24Z" clip-rule="evenodd"></path><path class="default-transition fill-trustBlack [transition-property:fill] dark:fill-trustWhite" d="M309.686 62.908c.168 0 .288.12.288.288v16.176c0 .168-.12.288-.288.288h-2.184a.277.277 0 0 1-.288-.288V66.004l-3.024 2.76c-.168.168-.36.072-.36-.168v-2.64a.51.51 0 0 1 .168-.36l2.952-2.544a.436.436 0 0 1 .336-.144h2.4Zm9.533 16.464c0 .168-.12.288-.288.288h-2.976a.277.277 0 0 1-.288-.288v-2.976c0-.168.12-.288.288-.288h2.976c.168 0 .288.12.288.288v2.976Zm10.084-16.464c.168 0 .288.12.288.288v16.176c0 .168-.12.288-.288.288h-2.184a.277.277 0 0 1-.288-.288V66.004l-3.024 2.76c-.168.168-.36.072-.36-.168v-2.64a.51.51 0 0 1 .168-.36l2.952-2.544a.436.436 0 0 1 .336-.144h2.4Z"></path><rect width="55.002" height="55.002" x="146.148" y="96.159" class="default-transition fill-trustWhite [transition-property:fill] dark:fill-trustBlack" rx="27.501"></rect><path fill="#929AA5" d="M180.213 136.786h-4.375v-26.98l10.209 10.208h-5.834v16.772Zm-13.125-26.251h4.375v26.98l-10.209-10.209h5.834v-16.771Z"></path><rect width="55.002" height="55.002" x="146.148" y="96.159" class="default-transition stroke-tintBlue [transition-property:stroke] dark:stroke-tintBlack" rx="27.501"></rect></svg>