<svg width="494" height="314" viewBox="0 0 494 314" fill="none" xmlns="http://www.w3.org/2000/svg">
<rect x="1.26066" y="248.261" width="490.895" height="64.1079" rx="32.0539" fill="#0500FF"/>
<rect x="1.26066" y="248.261" width="490.895" height="64.1079" rx="32.0539" stroke="#0500FF" stroke-width="2.52132"/>
<path d="M40.3058 293.576H35.3683V267.426H45.9748C47.8523 267.426 49.4859 267.767 50.8758 268.45C52.29 269.108 53.3872 270.035 54.1674 271.229C54.9721 272.424 55.3744 273.814 55.3744 275.399C55.3744 276.984 54.9721 278.386 54.1674 279.605C53.3872 280.8 52.29 281.738 50.8758 282.421C49.4859 283.079 47.8523 283.409 45.9748 283.409H39.94V279.239H45.9748C47.3402 279.239 48.4131 278.898 49.1933 278.215C49.9736 277.532 50.3637 276.594 50.3637 275.399C50.3637 274.228 49.9736 273.302 49.1933 272.619C48.4131 271.936 47.3402 271.595 45.9748 271.595H40.3058V293.576ZM72.6092 294.161C70.5854 294.161 68.7201 293.82 67.0133 293.137C65.3309 292.455 63.8557 291.504 62.5878 290.284C61.3199 289.065 60.3446 287.627 59.6619 285.969C58.9792 284.286 58.6378 282.458 58.6378 280.483C58.6378 278.508 58.9792 276.691 59.6619 275.033C60.3446 273.375 61.3199 271.936 62.5878 270.717C63.8557 269.498 65.3309 268.547 67.0133 267.864C68.7201 267.182 70.5854 266.84 72.6092 266.84C74.633 266.84 76.4861 267.182 78.1685 267.864C79.8753 268.547 81.3626 269.498 82.6305 270.717C83.8984 271.936 84.8738 273.375 85.5565 275.033C86.2392 276.691 86.5806 278.508 86.5806 280.483C86.5806 282.458 86.2392 284.286 85.5565 285.969C84.8738 287.627 83.8984 289.065 82.6305 290.284C81.3626 291.504 79.8753 292.455 78.1685 293.137C76.4861 293.82 74.633 294.161 72.6092 294.161ZM72.6092 289.809C74.3404 289.809 75.8643 289.407 77.181 288.602C78.4976 287.797 79.5217 286.7 80.2532 285.31C81.0091 283.896 81.387 282.287 81.387 280.483C81.387 278.678 81.0091 277.081 80.2532 275.691C79.5217 274.302 78.4976 273.204 77.181 272.4C75.8643 271.595 74.3404 271.193 72.6092 271.193C70.9024 271.193 69.3784 271.595 68.0374 272.4C66.7207 273.204 65.6844 274.302 64.9286 275.691C64.1971 277.081 63.8313 278.678 63.8313 280.483C63.8313 282.287 64.1971 283.896 64.9286 285.31C65.6844 286.7 66.7207 287.797 68.0374 288.602C69.3784 289.407 70.9024 289.809 72.6092 289.809ZM117.634 293.576H112.258L106.479 273.57H107.137L101.359 293.576H95.9456L88.4478 267.426H93.7511L99.347 289.334H98.2498L104.577 267.426H109.076L115.403 289.334H114.379L120.011 267.426H125.168L117.634 293.576ZM147.415 293.576H129.018V267.426H147.415V271.595H133.956V289.407H147.415V293.576ZM146.72 282.421H133.59V278.252H146.72V282.421ZM156.601 293.576H151.663V267.426H162.27C164.147 267.426 165.781 267.767 167.171 268.45C168.585 269.108 169.682 270.035 170.462 271.229C171.267 272.424 171.669 273.814 171.669 275.399C171.669 276.984 171.267 278.386 170.462 279.605C169.682 280.8 168.585 281.738 167.171 282.421C165.781 283.079 164.147 283.409 162.27 283.409H156.235V279.239H162.27C163.635 279.239 164.708 278.898 165.488 278.215C166.268 277.532 166.659 276.594 166.659 275.399C166.659 274.228 166.268 273.302 165.488 272.619C164.708 271.936 163.635 271.595 162.27 271.595H156.601V293.576ZM174.339 293.576H168.304L159.051 281.397H164.72L174.339 293.576ZM195.955 293.576H177.558V267.426H195.955V271.595H182.496V289.407H195.955V293.576ZM195.26 282.421H182.13V278.252H195.26V282.421ZM200.203 293.576V267.426H209.346C212.15 267.426 214.601 267.986 216.698 269.108C218.819 270.205 220.465 271.741 221.635 273.716C222.83 275.667 223.427 277.922 223.427 280.483C223.427 283.043 222.83 285.31 221.635 287.285C220.465 289.236 218.819 290.772 216.698 291.894C214.601 293.015 212.15 293.576 209.346 293.576H200.203ZM205.14 289.37H209.346C211.175 289.37 212.748 289.004 214.064 288.273C215.405 287.541 216.429 286.517 217.137 285.201C217.868 283.86 218.234 282.287 218.234 280.483C218.234 278.678 217.868 277.118 217.137 275.801C216.429 274.46 215.405 273.436 214.064 272.729C212.748 271.997 211.175 271.632 209.346 271.632H205.14V289.37ZM234.955 293.576V267.426H245.818C247.549 267.426 249.061 267.706 250.353 268.267C251.645 268.828 252.645 269.62 253.352 270.644C254.059 271.668 254.413 272.875 254.413 274.265C254.413 275.533 254.059 276.667 253.352 277.666C252.645 278.642 251.645 279.41 250.353 279.971C249.061 280.531 247.549 280.812 245.818 280.812H240.259V278.946H246.147C248.025 278.946 249.658 279.239 251.048 279.824C252.462 280.385 253.559 281.202 254.34 282.275C255.144 283.323 255.547 284.579 255.547 286.042C255.547 287.529 255.157 288.846 254.376 289.992C253.596 291.138 252.499 292.028 251.085 292.662C249.67 293.271 248.025 293.576 246.147 293.576H234.955ZM239.893 289.443H246.184C247.525 289.443 248.585 289.126 249.366 288.492C250.146 287.834 250.536 286.92 250.536 285.749C250.536 284.628 250.146 283.762 249.366 283.152C248.585 282.519 247.525 282.202 246.184 282.202H239.527V278.142H245.562C246.757 278.142 247.695 277.849 248.378 277.264C249.085 276.654 249.439 275.825 249.439 274.777C249.439 273.753 249.085 272.96 248.378 272.4C247.695 271.839 246.757 271.558 245.562 271.558H239.893V289.443ZM270.795 293.576H265.857V283.006L255.872 267.426H261.688L268.856 279.276H267.905L275.11 267.426H280.853L270.795 283.043V293.576Z" fill="white"/>
<g clip-path="url(#clip0_3080_30588)">
<path d="M313.04 298.229L313.97 293.946C315.008 289.169 311.355 284.656 306.45 284.656H302.188C303.532 290.659 307.604 295.636 313.04 298.229Z" fill="white"/>
<path d="M314.908 299.006C317.008 299.756 319.271 300.165 321.629 300.165C331.135 300.165 339.085 293.531 341.072 284.656H328.069C322.208 284.656 317.141 288.73 315.901 294.438L314.908 299.006Z" fill="white"/>
<path d="M341.41 282.671C341.502 281.898 341.549 281.112 341.549 280.314C341.549 269.9 333.502 261.359 323.266 260.529L320.474 273.382C319.436 278.159 323.089 282.671 327.994 282.671H341.41Z" fill="white"/>
<path d="M321.243 260.467C310.419 260.672 301.709 269.479 301.709 280.314C301.709 281.112 301.756 281.898 301.848 282.671H306.375C312.236 282.671 317.304 278.598 318.544 272.889L321.243 260.467Z" fill="white"/>
<path fill-rule="evenodd" clip-rule="evenodd" d="M388.99 273.903C388.74 273.614 388.407 273.335 387.992 273.067C387.576 272.798 387.108 272.561 386.588 272.354C386.068 272.127 385.496 271.952 384.872 271.828C384.269 271.683 383.635 271.611 382.969 271.611C381.264 271.611 380.006 271.931 379.195 272.571C378.384 273.211 377.978 274.089 377.978 275.204C377.978 275.989 378.186 276.608 378.602 277.063C379.018 277.517 379.653 277.889 380.505 278.178C381.378 278.467 382.481 278.766 383.812 279.076C385.351 279.407 386.681 279.809 387.804 280.284C388.927 280.759 389.79 281.4 390.393 282.205C390.997 282.99 391.298 284.043 391.298 285.364C391.298 286.418 391.09 287.337 390.674 288.121C390.279 288.885 389.718 289.526 388.99 290.042C388.262 290.537 387.409 290.909 386.432 291.157C385.454 291.384 384.394 291.498 383.25 291.498C382.127 291.498 381.025 291.384 379.944 291.157C378.883 290.909 377.874 290.558 376.918 290.104C375.961 289.649 375.067 289.082 374.235 288.4L375.577 286.046C375.909 286.397 376.336 286.748 376.855 287.099C377.396 287.429 377.999 287.739 378.665 288.028C379.351 288.317 380.089 288.555 380.879 288.741C381.67 288.906 382.481 288.989 383.313 288.989C384.893 288.989 386.12 288.71 386.993 288.152C387.867 287.574 388.304 286.738 388.304 285.643C388.304 284.817 388.054 284.156 387.555 283.661C387.076 283.165 386.359 282.752 385.402 282.422C384.446 282.091 383.281 281.761 381.909 281.43C380.411 281.059 379.153 280.656 378.134 280.222C377.115 279.768 376.346 279.18 375.826 278.457C375.327 277.734 375.077 276.794 375.077 275.638C375.077 274.234 375.421 273.046 376.107 272.076C376.793 271.105 377.739 270.372 378.945 269.876C380.152 269.381 381.514 269.133 383.032 269.133C384.03 269.133 384.955 269.236 385.808 269.443C386.681 269.649 387.492 269.938 388.241 270.31C388.99 270.682 389.676 271.126 390.3 271.642L388.99 273.903ZM403.943 271.766H411.586V269.288H393.493V271.766H401.136V291.281H403.943V271.766ZM430.435 288.803V291.281H415.399V269.288H430.153V271.766H418.207V278.89H428.594V281.214H418.207V288.803H430.435ZM434.91 291.281V269.288H444.392C445.37 269.288 446.264 269.494 447.076 269.907C447.886 270.3 448.593 270.837 449.197 271.518C449.8 272.179 450.268 272.933 450.6 273.779C450.933 274.605 451.099 275.452 451.099 276.319C451.099 277.331 450.902 278.292 450.507 279.2C450.132 280.109 449.592 280.883 448.884 281.523C448.198 282.164 447.387 282.608 446.452 282.855L451.817 291.281H448.635L443.581 283.382H437.717V291.281H434.91ZM437.717 280.904H444.423C445.194 280.904 445.859 280.697 446.421 280.284C447.003 279.851 447.449 279.283 447.762 278.581C448.094 277.878 448.26 277.125 448.26 276.319C448.26 275.493 448.073 274.74 447.7 274.058C447.325 273.356 446.836 272.798 446.233 272.385C445.631 271.972 444.964 271.766 444.237 271.766H437.717V280.904ZM363.661 269.288H361.29L352.213 291.281H355.207L357.797 284.838H367.092L369.712 291.281H372.707L363.661 269.288ZM362.476 272.509L366.468 282.669H358.358L362.476 272.509Z" fill="white"/>
</g>
<path d="M108.078 187.604C74.2038 187 59.7547 147.212 57.8672 133.469L43.3588 164.356C47.8304 187.643 61.0347 236.004 98.0692 244.227C139.55 253.436 177.178 233.242 203.519 218.676C224.591 207.023 280.05 166.019 306.208 142.467C317.046 132.604 347.22 112.785 381.211 112.414C415.201 112.042 425.988 134.673 427.132 146.035C434.454 136.983 450.343 87.5133 426.907 53.7378C403.471 19.9622 353.37 23.9382 320.278 38.4173C299.672 47.4336 250.013 96.3262 233.244 114.945C202.753 152.151 150.422 188.361 108.078 187.604Z" fill="url(#paint0_linear_3080_30588)" stroke="#0500FF" stroke-width="0.924282"/>
<path d="M238.23 104.075C203.33 146.611 163.037 175.687 145.556 180.589C180.399 173.513 211.762 137.491 224.785 124.682C228.358 120.683 233.875 114.986 240.891 108.375L238.23 104.075Z" fill="url(#paint1_linear_3080_30588)"/>
<path d="M238.243 104.072C203.343 146.608 163.28 175.479 145.799 180.381C180.642 173.305 211.775 137.488 224.798 124.679C228.371 120.68 233.889 114.983 240.904 108.372" stroke="#0500FF" stroke-width="0.924282"/>
<path d="M332.756 213.812C313.173 206.161 267.176 169.069 246.334 152.126C251.106 153.739 266.656 159.993 293.013 166.928C325.958 175.597 364.206 179.565 386.626 177.473C404.563 175.799 425.739 150.424 434.086 137.945L438.73 103.492L440.034 92.3094C453.444 174.833 440.108 198.245 423.837 210.964C395.749 232.921 357.236 223.376 332.756 213.812Z" fill="url(#paint2_linear_3080_30588)" stroke="#0500FF" stroke-width="0.924282"/>
<path d="M145.723 115.767L271.788 159.056C227.264 127.035 154.794 88.525 142.115 83.5134C129.437 78.5019 88.3226 55.2326 52.1459 94.397C23.2046 125.728 37.8727 173.153 48.7953 198.139C35.6728 157.555 54.2985 122.78 82.7096 112.047C105.439 103.462 132.345 111.106 145.723 115.767Z" fill="url(#paint3_linear_3080_30588)" stroke="#0500FF" stroke-width="0.924282"/>
<path d="M380.095 25.5073C344.447 20.7826 304.982 35.6113 238.27 104.061L240.932 108.361C257.27 92.9675 285.66 64.5869 312.638 49.1933C360.841 21.6884 402.595 35.8278 418.075 57.1828C433.555 78.5377 447.053 127.514 408.502 159.603C377.661 185.274 323.483 172.941 300.249 163.566C293.746 161.48 273.573 155.041 244.905 145.979C209.07 134.652 136.785 101.366 98.9405 106.382C52.9738 113.275 43.6094 148.393 43.6623 173.009C43.7153 197.624 62.2447 233.192 89.2771 244.77C116.309 256.348 150.255 248.178 181.909 232.778C207.233 220.459 252.929 189.053 271.516 172.657L269.863 171.473C252.97 188.37 205.44 216.902 187.925 226.884C162.922 241.133 124.948 250.557 101.241 244.741C77.5336 238.925 58.9327 218.087 51.5774 188.639C44.2221 159.192 53.9265 133.55 82.1074 119.027C104.652 107.409 145.871 117.726 163.662 124.336C203.788 137.701 290.606 166.792 316.87 176.243C349.701 188.058 366.29 185.966 391.071 179.443C415.851 172.92 443.782 149.594 441.468 105.181C439.154 60.7686 415.742 30.232 380.095 25.5073Z" fill="url(#paint4_linear_3080_30588)"/>
<path d="M238.27 104.061C304.982 35.6113 344.447 20.7826 380.095 25.5073C415.742 30.232 439.154 60.7686 441.468 105.181C443.782 149.594 415.851 172.92 391.071 179.443C366.29 185.966 349.701 188.058 316.87 176.243C290.606 166.792 203.788 137.701 163.662 124.336C145.871 117.726 104.652 107.409 82.1074 119.027C53.9265 133.55 44.3357 159.642 51.691 189.089C59.0464 218.537 77.5336 238.925 101.241 244.741C124.948 250.557 162.922 241.133 187.925 226.884C205.44 216.902 252.97 188.37 269.863 171.473L271.516 172.657C252.929 189.053 207.233 220.459 181.909 232.778C150.255 248.178 116.309 256.348 89.2771 244.77C62.2447 233.192 43.7153 197.624 43.6623 173.009C43.6094 148.393 52.9738 113.275 98.9405 106.382C136.785 101.366 209.07 134.652 244.905 145.979C273.573 155.041 293.746 161.48 300.249 163.566C323.483 172.941 377.661 185.274 408.502 159.603C447.053 127.514 433.555 78.5378 418.075 57.1828C402.595 35.8278 360.841 21.6884 312.638 49.1933C285.66 64.5869 257.27 92.9675 240.932 108.361" stroke="#0500FF" stroke-width="0.924282"/>
<path d="M361.217 68.901C349.759 35.3663 316.439 4.90528 286.788 0.860442C257.129 -3.1844 242.375 20.7104 253.833 54.2452C265.281 87.771 298.602 118.232 328.261 122.277C357.911 126.322 372.674 102.427 361.217 68.901Z" fill="url(#paint5_linear_3080_30588)"/>
<path d="M290.873 7.03453C316.853 10.5715 346.067 37.2817 356.107 66.6647C366.148 96.0388 353.203 116.994 327.223 113.448C301.244 109.902 272.03 83.2004 261.998 53.8264C251.957 24.4434 264.894 3.48862 290.882 7.04344L290.873 7.03453Z" fill="url(#paint6_linear_3080_30588)"/>
<path d="M290.877 7.03349C289.176 6.80185 287.527 6.67712 285.942 6.65039L258.866 30.4561C258.091 37.2451 259.035 45.1565 261.993 53.8164C264.871 62.2536 269.344 70.468 274.858 77.9785L331.014 28.6119C318.879 17.0476 304.437 8.87772 290.868 7.03349H290.877Z" fill="#F4F4F7"/>
<path d="M327.222 62.175C332.345 64.4647 336.069 68.367 337.869 73.5076C340.524 81.0895 336.8 85.2947 327.409 84.1454L322.821 83.5841L325.957 92.5291L319.346 91.7183L316.21 82.7734L311.096 82.1497L314.232 91.0947L307.622 90.2839L304.486 81.3389L298.73 80.6351L291.202 79.7085L287.941 70.3983L295.469 71.3249L286.248 44.9978L278.72 44.0712L275.459 34.752L282.987 35.6786L288.743 36.3824L285.562 27.2949L292.173 28.1057L295.353 37.1932L300.467 37.8168L297.287 28.7293L303.898 29.5401L307.078 38.6276L310.749 39.082C320.068 40.2224 327.062 45.6303 329.646 53.0162C331.196 57.453 330.358 60.6604 327.222 62.1839V62.175ZM321.984 74.755C324.959 75.1202 326.215 73.8551 325.155 70.8438C324.122 67.8948 321.779 66.0594 318.803 65.6942L304.726 63.9657L307.898 73.0265L321.975 74.755M298.605 46.5035L301.661 55.2346L315.052 56.8828C317.858 57.2303 319.061 55.9652 318.046 53.0785C317.057 50.2454 314.794 48.4991 311.996 48.1606L298.605 46.5124" fill="#1B1B1C"/>
<path d="M298.626 46.5035L309.202 47.8042L317.282 40.7035C315.278 39.9194 313.095 39.3671 310.761 39.082L307.09 38.6276L303.909 29.5401L297.299 28.7293L300.479 37.8168L295.365 37.1932L292.185 28.1057L285.574 27.2949L288.755 36.3824L282.999 35.6786L275.471 34.752L278.732 44.0712L286.26 44.9978L292.416 62.567L301.459 54.6199L298.626 46.5213V46.5035Z" fill="#1B1B1C"/>
<path d="M355.086 115.717L348.475 121.535C342.123 127.112 332.973 129.642 321.658 128.101C291.999 124.056 258.678 93.5949 247.229 60.0691C240.146 39.3371 243.086 22.2846 253.368 13.2416L259.978 7.42383C249.697 16.4668 246.757 33.5104 253.84 54.2513C265.288 87.7771 298.609 118.238 328.268 122.283C339.592 123.824 348.742 121.303 355.086 115.717Z" fill="#2D9FFF"/>
<path d="M288.58 103.094L281.969 108.912C294.406 119.193 308.394 126.285 321.651 128.093C332.975 129.635 342.125 127.113 348.468 121.527L355.079 115.709C348.726 121.287 339.576 123.817 328.262 122.276C315.005 120.467 301.017 113.366 288.58 103.094Z" fill="#1B1B1C"/>
<path d="M274.312 89.0978C271.791 86.1755 269.421 83.1285 267.203 79.9746L260.592 85.7924C262.81 88.9463 265.189 91.9933 267.701 94.9156L274.312 89.0978Z" fill="#1B1B1C"/>
<path d="M353.749 104.433C348.278 111.542 339.119 115.07 327.225 113.44C323.688 112.959 320.089 112.032 316.481 110.741L315.59 119.044C319.84 120.594 324.098 121.708 328.277 122.278C341.552 124.087 351.833 120.291 358.114 112.54L353.749 104.424V104.433Z" fill="#48FF91"/>
<path d="M309.341 107.707C306.419 106.264 303.523 104.598 300.681 102.727L297.732 109.899C300.94 112.019 304.218 113.917 307.515 115.565L309.341 107.707Z" fill="#F4F4F7"/>
<path d="M355.086 115.717L348.475 121.535C342.123 127.112 332.973 129.642 321.658 128.101C291.999 124.056 258.678 93.5949 247.229 60.0691C240.146 39.3371 243.086 22.2846 253.368 13.2416L259.978 7.42383C249.697 16.4668 246.757 33.5104 253.84 54.2513C265.288 87.7771 298.609 118.238 328.268 122.283C339.592 123.824 348.742 121.303 355.086 115.717Z" stroke="#0500FF" stroke-width="0.827641" stroke-linecap="round" stroke-linejoin="round"/>
<path d="M361.217 68.901C349.759 35.3663 316.439 4.90528 286.788 0.860442C257.129 -3.1844 242.375 20.7104 253.833 54.2452C265.281 87.771 298.602 118.232 328.261 122.277C357.911 126.322 372.674 102.427 361.217 68.901Z" stroke="#0500FF" stroke-width="0.827641" stroke-linecap="round" stroke-linejoin="round"/>
<path d="M117.333 197.548C122.111 181.075 139.385 161.041 155.893 152.819C172.4 144.598 181.925 151.292 177.142 167.77C172.365 184.242 155.091 204.277 138.583 212.498C122.075 220.72 112.55 214.026 117.333 197.548Z" fill="url(#paint7_linear_3080_30588)"/>
<path d="M158.223 149.619C139.38 159.003 119.676 181.85 114.226 200.652C108.771 219.454 119.629 227.092 138.472 217.709C157.315 208.325 177.019 185.477 182.469 166.676C187.924 147.874 177.067 140.236 158.223 149.619ZM177.137 167.773C172.36 184.245 155.086 204.279 138.578 212.501C122.07 220.722 112.545 214.028 117.328 197.55C122.106 181.078 139.38 161.043 155.888 152.822C172.396 144.6 181.92 151.294 177.137 167.773Z" fill="url(#paint8_linear_3080_30588)"/>
<path d="M131.74 215.171C119.573 218.509 113.257 211.579 117.332 197.543C118.618 193.102 120.818 188.407 123.66 183.748L121.502 184.816C118.228 190.159 115.698 195.549 114.224 200.645C109.582 216.64 116.754 224.548 130.596 220.78L131.74 215.165V215.171Z" fill="#F4F4F7"/>
<path d="M151.838 203.572C149.88 205.224 147.88 206.763 145.863 208.155L146.736 212.79C149.042 211.198 151.325 209.446 153.566 207.559L151.838 203.572Z" fill="#F4F4F7"/>
<path d="M180.334 148.279L185.194 152.667C188.874 155.994 189.865 162.322 187.329 171.062C181.873 189.864 162.175 212.718 143.332 222.095C133.252 227.114 125.456 227.262 121.221 223.434L116.361 219.046C120.596 222.874 128.393 222.726 138.472 217.707C157.315 208.324 177.019 185.476 182.469 166.674C185.005 157.934 184.014 151.6 180.334 148.279Z" fill="#2D9FFF" stroke="#0500FF" stroke-width="0.547874" stroke-linecap="round" stroke-linejoin="round"/>
<path d="M182.473 166.674C181.653 169.493 180.509 172.407 179.1 175.35L183.959 179.738C185.369 176.795 186.513 173.881 187.333 171.062C189.869 162.322 188.878 155.988 185.198 152.667L180.338 148.279C184.018 151.606 185.009 157.934 182.473 166.674Z" fill="#1B1B1C" stroke="#0500FF" stroke-width="0.547874" stroke-linecap="round" stroke-linejoin="round"/>
<path d="M178.211 189.775C179.68 187.563 181.024 185.334 182.233 183.105L177.374 178.717C176.165 180.94 174.82 183.175 173.352 185.387L178.211 189.775Z" fill="#1B1B1C" stroke="#0500FF" stroke-width="0.547874" stroke-linecap="round" stroke-linejoin="round"/>
<path d="M158.223 149.619C139.38 159.003 119.676 181.85 114.226 200.652C108.771 219.454 119.629 227.092 138.472 217.709C157.315 208.325 177.019 185.477 182.469 166.676C187.924 147.874 177.067 140.236 158.223 149.619Z" stroke="#0500FF" stroke-width="0.547874" stroke-linecap="round" stroke-linejoin="round"/>
<path d="M165.428 149.554L167.032 187.217C171.715 180.783 175.33 174.024 177.141 167.772C180.903 154.809 175.808 147.909 165.428 149.554Z" fill="white"/>
<defs>
<linearGradient id="paint0_linear_3080_30588" x1="232.152" y1="41.6773" x2="156.433" y2="284.837" gradientUnits="userSpaceOnUse">
<stop offset="0.0457846" stop-color="#2ECCFF"/>
<stop offset="1" stop-color="#0500FF"/>
</linearGradient>
<linearGradient id="paint1_linear_3080_30588" x1="167.066" y1="165.893" x2="417.758" y2="66.9453" gradientUnits="userSpaceOnUse">
<stop offset="0.0598417" stop-color="#FFF8A3"/>
<stop offset="0.777316" stop-color="#FFAEFE"/>
</linearGradient>
<linearGradient id="paint2_linear_3080_30588" x1="384.982" y1="132.964" x2="358.639" y2="251.245" gradientUnits="userSpaceOnUse">
<stop offset="0.0457846" stop-color="#2ECCFF"/>
<stop offset="1" stop-color="#0500FF"/>
</linearGradient>
<linearGradient id="paint3_linear_3080_30588" x1="144.456" y1="67.0037" x2="157.099" y2="186.699" gradientUnits="userSpaceOnUse">
<stop offset="0.0457846" stop-color="#2ECCFF"/>
<stop offset="1" stop-color="#0500FF"/>
</linearGradient>
<linearGradient id="paint4_linear_3080_30588" x1="231.904" y1="38.6111" x2="252.805" y2="236.487" gradientUnits="userSpaceOnUse">
<stop offset="0.0598417" stop-color="#FFF8A3"/>
<stop offset="0.777316" stop-color="#FFAEFE"/>
</linearGradient>
<linearGradient id="paint5_linear_3080_30588" x1="270.074" y1="63.2882" x2="330.453" y2="60.5263" gradientUnits="userSpaceOnUse">
<stop stop-color="#47FD92"/>
<stop offset="0.22" stop-color="#3EDBB9"/>
<stop offset="0.42" stop-color="#36C1D7"/>
<stop offset="0.63" stop-color="#31AEED"/>
<stop offset="0.82" stop-color="#2EA2FA"/>
<stop offset="1" stop-color="#2D9FFF"/>
</linearGradient>
<linearGradient id="paint6_linear_3080_30588" x1="258.586" y1="60.2411" x2="359.502" y2="60.2411" gradientUnits="userSpaceOnUse">
<stop stop-color="#F4F4F7"/>
<stop offset="0.16" stop-color="#F0F4F4"/>
<stop offset="0.31" stop-color="#E4F5ED"/>
<stop offset="0.46" stop-color="#D0F6E2"/>
<stop offset="0.61" stop-color="#B5F8D1"/>
<stop offset="0.76" stop-color="#91FABC"/>
<stop offset="0.91" stop-color="#66FDA3"/>
<stop offset="1" stop-color="#48FF91"/>
</linearGradient>
<linearGradient id="paint7_linear_3080_30588" x1="123.331" y1="182.656" x2="167.753" y2="182.656" gradientUnits="userSpaceOnUse">
<stop stop-color="#FFAEFE"/>
<stop offset="1" stop-color="#FFF465"/>
</linearGradient>
<linearGradient id="paint8_linear_3080_30588" x1="146.911" y1="222.596" x2="149.875" y2="144.743" gradientUnits="userSpaceOnUse">
<stop stop-color="#FFAEFE"/>
<stop offset="1" stop-color="#FFF465"/>
</linearGradient>
<clipPath id="clip0_3080_30588">
<rect width="150.107" height="39.6978" fill="white" transform="translate(301.709 260.467)"/>
</clipPath>
</defs>
</svg>
